<svg width="21" height="20" viewBox="0 0 21 20" fill="none" xmlns="http://www.w3.org/2000/svg">
<path d="M20.0924 11C20.0108 11.0005 19.9299 10.9842 19.8543 10.9519C19.7787 10.9197 19.71 10.8722 19.652 10.8122L10.7892 1.55429L1.92626 10.8122C1.80761 10.9183 1.65499 10.9737 1.4989 10.9674C1.3428 10.9611 1.19473 10.8936 1.08428 10.7783C0.973819 10.663 0.90911 10.5084 0.903081 10.3455C0.897052 10.1826 0.950146 10.0232 1.05175 9.89939L10.355 0.188262C10.4712 0.0676813 10.6284 0 10.7923 0C10.9561 0 11.1133 0.0676813 11.2295 0.188262L20.5327 9.89939C20.6181 9.99028 20.6759 10.1054 20.6989 10.2304C20.7219 10.3554 20.7091 10.4847 20.6621 10.6021C20.6152 10.7195 20.536 10.8199 20.4347 10.8907C20.3334 10.9614 20.2143 10.9995 20.0924 11Z" fill="#D77A61"/>
<path d="M11.3011 4L3.87332 11.3499V18.7791C3.87332 19.1029 4.00375 19.4134 4.23591 19.6424C4.46808 19.8714 4.78296 20 5.11129 20H9.44416V13.8955H13.1581V20H17.4909C17.8193 20 18.1341 19.8714 18.3663 19.6424C18.5985 19.4134 18.7289 19.1029 18.7289 18.7791V11.3071L11.3011 4Z" fill="#D77A61"/>
</svg>
