<svg width="26" height="26" viewBox="0 0 26 26" fill="none" xmlns="http://www.w3.org/2000/svg">
<path d="M8.66669 8.66667V7.58333C8.66669 6.43406 9.12323 5.33186 9.93589 4.5192C10.7485 3.70655 11.8507 3.25 13 3.25C14.1493 3.25 15.2515 3.70655 16.0642 4.5192C16.8768 5.33186 17.3334 6.43406 17.3334 7.58333V8.66667M16.25 15.1667V13M9.75002 15.1667V13" stroke="#D77A61" stroke-width="2" stroke-linecap="round"/>
<path d="M4.33334 12.9998C4.33334 10.9567 4.33334 9.93617 4.96818 9.30134C5.60301 8.6665 6.62351 8.6665 8.66668 8.6665H17.3333C19.3765 8.6665 20.397 8.6665 21.0318 9.30134C21.6667 9.93617 21.6667 10.9567 21.6667 12.9998V14.0832C21.6667 18.1684 21.6667 20.2116 20.397 21.4802C19.1284 22.7498 17.0853 22.7498 13 22.7498C8.91476 22.7498 6.87159 22.7498 5.60301 21.4802C4.33334 20.2116 4.33334 18.1684 4.33334 14.0832V12.9998Z" stroke="#D77A61" stroke-width="2"/>
</svg>
