<svg width="20" height="20" viewBox="0 0 20 20" fill="none" xmlns="http://www.w3.org/2000/svg">
<path d="M7.1665 6.83333V6.04167C7.1665 5.20181 7.50013 4.39636 8.094 3.8025C8.68786 3.20863 9.49332 2.875 10.3332 2.875C11.173 2.875 11.9785 3.20863 12.5723 3.8025C13.1662 4.39636 13.4998 5.20181 13.4998 6.04167V6.83333M12.7082 11.5833V10M7.95817 11.5833V10" stroke="#D77A61" stroke-width="2" stroke-linecap="round"/>
<path d="M4 10.0002C4 8.50708 4 7.76133 4.46392 7.29741C4.92783 6.8335 5.67358 6.8335 7.16667 6.8335H13.5C14.9931 6.8335 15.7388 6.8335 16.2027 7.29741C16.6667 7.76133 16.6667 8.50708 16.6667 10.0002V10.7918C16.6667 13.7772 16.6667 15.2703 15.7388 16.1973C14.8118 17.1252 13.3187 17.1252 10.3333 17.1252C7.34796 17.1252 5.85487 17.1252 4.92783 16.1973C4 15.2703 4 13.7772 4 10.7918V10.0002Z" stroke="#D77A61" stroke-width="2"/>
</svg>
