<svg width="23" height="22" viewBox="0 0 23 22" fill="none" xmlns="http://www.w3.org/2000/svg">
<path d="M21.5 21L16.6745 16.1745M16.6745 16.1745C17.4999 15.3491 18.1547 14.3692 18.6014 13.2907C19.0481 12.2122 19.278 11.0563 19.278 9.88902C19.278 8.72169 19.0481 7.5658 18.6014 6.48734C18.1547 5.40887 17.4999 4.42895 16.6745 3.60353C15.8491 2.77811 14.8692 2.12335 13.7907 1.67664C12.7122 1.22992 11.5563 1 10.389 1C9.22169 1 8.0658 1.22992 6.98734 1.67664C5.90887 2.12335 4.92895 2.77811 4.10353 3.60353C2.43652 5.27055 1.5 7.5315 1.5 9.88902C1.5 12.2465 2.43652 14.5075 4.10353 16.1745C5.77055 17.8415 8.0315 18.778 10.389 18.778C12.7465 18.778 15.0075 17.8415 16.6745 16.1745Z" stroke="#D77A61" stroke-width="1.5" stroke-linecap="round" stroke-linejoin="round"/>
</svg>
