<svg width="29" height="30" viewBox="0 0 29 30" fill="none" xmlns="http://www.w3.org/2000/svg">
<path d="M10.5299 28.8704C11.8733 29.2988 13.2306 29.55 14.6719 29.55C18.3831 29.55 21.9423 27.9934 24.5665 25.2225C27.1907 22.4517 28.6649 18.6936 28.6649 14.775C28.6649 12.8347 28.303 10.9134 27.5998 9.12085C26.8966 7.32827 25.8658 5.69948 24.5665 4.3275C23.2671 2.95551 21.7245 1.86719 20.0268 1.12468C18.3291 0.382167 16.5095 0 14.6719 0C12.8343 0 11.0147 0.382167 9.31698 1.12468C7.61926 1.86719 6.07668 2.95551 4.7773 4.3275C2.1531 7.09835 0.678833 10.8564 0.678833 14.775C0.678833 21.0544 4.41498 26.4473 9.69036 28.5749C9.56442 27.4224 9.43849 25.5164 9.69036 24.2015L11.2996 16.9026C11.2996 16.9026 10.8938 16.0457 10.8938 14.6864C10.8938 12.6474 12.0972 11.1256 13.4685 11.1256C14.6719 11.1256 15.2316 12.0564 15.2316 13.2532C15.2316 14.5238 14.434 16.3412 14.0282 18.0846C13.7903 19.5326 14.7558 20.8032 16.1552 20.8032C18.6459 20.8032 20.577 17.996 20.577 14.0363C20.577 10.4903 18.1702 8.06715 14.7139 8.06715C10.7678 8.06715 8.44498 11.1699 8.44498 14.4352C8.44498 15.7058 8.83678 16.9913 9.48047 17.8334C9.6064 17.9221 9.6064 18.0403 9.56442 18.2619L9.15863 19.8724C9.15863 20.1236 9.0047 20.2122 8.76682 20.0349C6.97571 19.2075 5.94022 16.5185 5.94022 14.3465C5.94022 9.67763 9.07467 5.4372 15.1197 5.4372C19.9333 5.4372 23.6834 9.08663 23.6834 13.9328C23.6834 19.0154 20.7029 23.0933 16.435 23.0933C15.0777 23.0933 13.7483 22.325 13.2726 21.4238L12.335 24.9254C12.0132 26.1961 11.1316 27.8952 10.5299 28.9147V28.8704Z" fill="#295554"/>
</svg>
