<svg width="26" height="23" viewBox="0 0 26 23" fill="none" xmlns="http://www.w3.org/2000/svg">
<path fill-rule="evenodd" clip-rule="evenodd" d="M8.35714 0.0231934C7.43786 0.0231934 6.71729 0.642954 6.27157 1.38626C5.82029 2.13573 5.57143 3.11376 5.57143 4.14121C5.57143 5.17071 5.82029 6.14668 6.27157 6.89616C6.71729 7.6374 7.43786 8.25922 8.35714 8.25922C9.27643 8.25922 9.997 7.63946 10.4427 6.89616C10.894 6.14668 11.1429 5.16865 11.1429 4.14121C11.1429 3.1117 10.894 2.13573 10.4427 1.38626C9.997 0.645013 9.27643 0.0231934 8.35714 0.0231934ZM17.6429 0.0231934C16.7236 0.0231934 16.003 0.642954 15.5573 1.38626C15.106 2.13573 14.8571 3.11376 14.8571 4.14121C14.8571 5.17071 15.106 6.14668 15.5573 6.89616C16.003 7.6374 16.7236 8.25922 17.6429 8.25922C18.5621 8.25922 19.2827 7.63946 19.7284 6.89616C20.1797 6.14668 20.4286 5.16865 20.4286 4.14121C20.4286 3.1117 20.1797 2.13573 19.7284 1.38626C19.2827 0.645013 18.5621 0.0231934 17.6429 0.0231934ZM2.78571 9.28872C1.86643 9.28872 1.14586 9.90848 0.700143 10.6518C0.248857 11.4013 0 12.3793 0 13.4067C0 14.4362 0.248857 15.4122 0.700143 16.1617C1.14586 16.9029 1.86643 17.5247 2.78571 17.5247C3.705 17.5247 4.42557 16.905 4.87129 16.1617C5.32257 15.4122 5.57143 14.4342 5.57143 13.4067C5.57143 12.3772 5.32257 11.4013 4.87129 10.6518C4.42557 9.91054 3.705 9.28872 2.78571 9.28872ZM13 9.28872C10.7714 9.28872 9.12043 10.6147 8.06557 12.2599C7.02371 13.8803 6.5 15.892 6.5 17.5247C6.5 19.4273 7.53071 20.7491 8.79543 21.5439C10.0397 22.3263 11.5997 22.6723 13 22.6723C14.3984 22.6723 15.9603 22.3284 17.2046 21.5439C18.4674 20.7491 19.5 19.4273 19.5 17.5247C19.5 15.892 18.9763 13.8803 17.9344 12.2599C16.8814 10.6127 15.2304 9.28872 13 9.28872ZM23.2143 9.28872C22.295 9.28872 21.5744 9.90848 21.1287 10.6518C20.6774 11.4013 20.4286 12.3793 20.4286 13.4067C20.4286 14.4362 20.6774 15.4122 21.1287 16.1617C21.5744 16.9029 22.295 17.5247 23.2143 17.5247C24.1336 17.5247 24.8541 16.905 25.2999 16.1617C25.7511 15.4122 26 14.4342 26 13.4067C26 12.3772 25.7511 11.4013 25.2999 10.6518C24.8541 9.91054 24.1336 9.28872 23.2143 9.28872Z" fill="white"/>
</svg>
