<svg width="27" height="21" viewBox="0 0 27 21" fill="none" xmlns="http://www.w3.org/2000/svg">
<path fill-rule="evenodd" clip-rule="evenodd" d="M8.3957 0.777832C7.4742 0.777832 6.75189 1.31545 6.30511 1.96023C5.85273 2.61038 5.60328 3.45878 5.60328 4.35004C5.60328 5.24309 5.85273 6.08971 6.30511 6.73985C6.75189 7.38285 7.4742 7.92225 8.3957 7.92225C9.3172 7.92225 10.0395 7.38463 10.4863 6.73985C10.9387 6.08971 11.1881 5.24131 11.1881 4.35004C11.1881 3.45699 10.9387 2.61038 10.4863 1.96023C10.0395 1.31724 9.3172 0.777832 8.3957 0.777832ZM17.7038 0.777832C16.7823 0.777832 16.06 1.31545 15.6132 1.96023C15.1608 2.61038 14.9114 3.45878 14.9114 4.35004C14.9114 5.24309 15.1608 6.08971 15.6132 6.73985C16.06 7.38285 16.7823 7.92225 17.7038 7.92225C18.6253 7.92225 19.3476 7.38463 19.7944 6.73985C20.2467 6.08971 20.4962 5.24131 20.4962 4.35004C20.4962 3.45699 20.2467 2.61038 19.7944 1.96023C19.3476 1.31724 18.6253 0.777832 17.7038 0.777832ZM2.81086 8.8153C1.88936 8.8153 1.16705 9.35292 0.720262 9.9977C0.267889 10.6478 0.0184326 11.4962 0.0184326 12.3875C0.0184326 13.2806 0.267889 14.1272 0.720262 14.7773C1.16705 15.4203 1.88936 15.9597 2.81086 15.9597C3.73235 15.9597 4.45466 15.4221 4.90145 14.7773C5.35382 14.1272 5.60328 13.2788 5.60328 12.3875C5.60328 11.4945 5.35382 10.6478 4.90145 9.9977C4.45466 9.35471 3.73235 8.8153 2.81086 8.8153ZM13.0497 8.8153C10.8158 8.8153 9.16082 9.96555 8.10343 11.3927C7.05906 12.7983 6.53409 14.5433 6.53409 15.9597C6.53409 17.6101 7.56728 18.7568 8.83504 19.4462C10.0823 20.1249 11.6461 20.425 13.0497 20.425C14.4515 20.425 16.0172 20.1267 17.2644 19.4462C18.5303 18.7568 19.5654 17.6101 19.5654 15.9597C19.5654 14.5433 19.0404 12.7983 17.996 11.3927C16.9405 9.96377 15.2855 8.8153 13.0497 8.8153ZM23.2886 8.8153C22.3671 8.8153 21.6448 9.35292 21.198 9.9977C20.7457 10.6478 20.4962 11.4962 20.4962 12.3875C20.4962 13.2806 20.7457 14.1272 21.198 14.7773C21.6448 15.4203 22.3671 15.9597 23.2886 15.9597C24.2101 15.9597 24.9324 15.4221 25.3792 14.7773C25.8316 14.1272 26.081 13.2788 26.081 12.3875C26.081 11.4945 25.8316 10.6478 25.3792 9.9977C24.9324 9.35471 24.2101 8.8153 23.2886 8.8153Z" fill="white"/>
</svg>
