<svg width="26" height="23" viewBox="0 0 26 23" fill="none" xmlns="http://www.w3.org/2000/svg">
<path fill-rule="evenodd" clip-rule="evenodd" d="M8.35714 0C7.43786 0 6.71729 0.619761 6.27157 1.36306C5.82029 2.11254 5.57143 3.09057 5.57143 4.11801C5.57143 5.14752 5.82029 6.12348 6.27157 6.87296C6.71729 7.6142 7.43786 8.23602 8.35714 8.23602C9.27643 8.23602 9.997 7.61626 10.4427 6.87296C10.894 6.12348 11.1429 5.14546 11.1429 4.11801C11.1429 3.08851 10.894 2.11254 10.4427 1.36306C9.997 0.62182 9.27643 0 8.35714 0ZM17.6429 0C16.7236 0 16.003 0.619761 15.5573 1.36306C15.106 2.11254 14.8571 3.09057 14.8571 4.11801C14.8571 5.14752 15.106 6.12348 15.5573 6.87296C16.003 7.6142 16.7236 8.23602 17.6429 8.23602C18.5621 8.23602 19.2827 7.61626 19.7284 6.87296C20.1797 6.12348 20.4286 5.14546 20.4286 4.11801C20.4286 3.08851 20.1797 2.11254 19.7284 1.36306C19.2827 0.62182 18.5621 0 17.6429 0ZM2.78571 9.26553C1.86643 9.26553 1.14586 9.88529 0.700143 10.6286C0.248857 11.3781 0 12.3561 0 13.3835C0 14.413 0.248857 15.389 0.700143 16.1385C1.14586 16.8797 1.86643 17.5016 2.78571 17.5016C3.705 17.5016 4.42557 16.8818 4.87129 16.1385C5.32257 15.389 5.57143 14.411 5.57143 13.3835C5.57143 12.354 5.32257 11.3781 4.87129 10.6286C4.42557 9.88735 3.705 9.26553 2.78571 9.26553ZM13 9.26553C10.7714 9.26553 9.12043 10.5915 8.06557 12.2367C7.02371 13.8571 6.5 15.8688 6.5 17.5016C6.5 19.4041 7.53071 20.726 8.79543 21.5207C10.0397 22.3032 11.5997 22.6491 13 22.6491C14.3984 22.6491 15.9603 22.3052 17.2046 21.5207C18.4674 20.726 19.5 19.4041 19.5 17.5016C19.5 15.8688 18.9763 13.8571 17.9344 12.2367C16.8814 10.5895 15.2304 9.26553 13 9.26553ZM23.2143 9.26553C22.295 9.26553 21.5744 9.88529 21.1287 10.6286C20.6774 11.3781 20.4286 12.3561 20.4286 13.3835C20.4286 14.413 20.6774 15.389 21.1287 16.1385C21.5744 16.8797 22.295 17.5016 23.2143 17.5016C24.1336 17.5016 24.8541 16.8818 25.2999 16.1385C25.7511 15.389 26 14.411 26 13.3835C26 12.354 25.7511 11.3781 25.2999 10.6286C24.8541 9.88735 24.1336 9.26553 23.2143 9.26553Z" fill="white"/>
</svg>
