<svg width="19" height="18" viewBox="0 0 19 18" fill="none" xmlns="http://www.w3.org/2000/svg">
<path d="M12.5484 4.66689L12.5487 4.66744C12.5943 4.74919 12.6302 4.81357 12.6616 4.86865C12.7161 4.88142 12.7796 4.89576 12.8587 4.91362L12.8597 4.91384L13.2413 5.00024L13.2413 5.00024C13.2728 5.00739 13.3044 5.01452 13.3359 5.02166C13.9912 5.16985 14.6424 5.31709 15.1422 5.51411C15.6947 5.73188 16.4426 6.15566 16.7313 7.08289L16.7316 7.08384C17.0147 7.99504 16.6568 8.7669 16.3447 9.26273C16.0553 9.72255 15.6154 10.2368 15.1648 10.7634C15.145 10.7866 15.1252 10.8097 15.1054 10.8329L15.1049 10.8335L14.8453 11.1367C14.7763 11.2175 14.7242 11.2784 14.6803 11.3312C14.6863 11.4039 14.6945 11.4885 14.7054 11.6016L14.7449 12.0069L14.745 12.0081C14.7481 12.0397 14.7512 12.0713 14.7542 12.1029C14.8224 12.8061 14.8882 13.4856 14.864 14.0291C14.8386 14.599 14.7019 15.4626 13.9279 16.0504L12.5484 4.66689ZM12.5484 4.66689L12.3517 4.31425C12.3517 4.3142 12.3517 4.31414 12.3516 4.31409C12.336 4.28597 12.3203 4.25786 12.3046 4.22979C11.9656 3.62138 11.6348 3.02793 11.3065 2.59919C10.9621 2.14955 10.3369 1.5 9.3335 1.5C8.3301 1.5 7.70486 2.14955 7.36052 2.59919C7.03218 3.02793 6.70143 3.62138 6.36235 4.22979C6.3467 4.25786 6.33104 4.28597 6.31535 4.31409C6.31532 4.31414 6.31529 4.3142 6.31526 4.31425L6.11856 4.66689L6.11825 4.66744C6.07267 4.74923 6.03676 4.81363 6.00535 4.86873C5.95088 4.8815 5.88754 4.89585 5.80845 4.91372L5.80792 4.91384L5.42689 5.00012C5.4267 5.00016 5.42652 5.0002 5.42633 5.00024C5.39625 5.00704 5.36616 5.01383 5.33608 5.02062C4.6791 5.16894 4.02622 5.31632 3.52502 5.51391C2.97249 5.73172 2.22436 6.15565 1.93565 7.08289L1.93522 7.08427C1.65255 7.99523 2.00984 8.76686 2.32224 9.26318C2.61192 9.7234 3.05225 10.2378 3.5031 10.7645C3.52256 10.7873 3.54205 10.81 3.56154 10.8328C3.56164 10.8329 3.56174 10.8331 3.56185 10.8332L3.82152 11.1371L3.82252 11.1383C3.89126 11.2186 3.94303 11.2791 3.98666 11.3315C3.98071 11.4041 3.97257 11.4886 3.96163 11.6017C3.9616 11.6019 3.96158 11.6021 3.96156 11.6023L3.92209 12.0067L3.92195 12.0081C3.91889 12.0397 3.91582 12.0714 3.91277 12.1029C3.84463 12.8061 3.77878 13.4858 3.80309 14.0294C3.82862 14.6004 3.96593 15.4638 4.74045 16.0516L4.74093 16.0519C5.53994 16.6577 6.42222 16.5246 6.98048 16.3646C7.49592 16.2168 8.10508 15.9362 8.7189 15.6535C8.74802 15.6401 8.77716 15.6266 8.8063 15.6132L9.16329 15.4491L9.16558 15.448C9.23164 15.4175 9.28608 15.3924 9.3335 15.3709C9.38091 15.3924 9.43535 15.4175 9.50141 15.448L9.50457 15.4495M12.5484 4.66689L9.50457 15.4495M9.50457 15.4495L9.86107 15.6131C9.86143 15.6133 9.86179 15.6135 9.86215 15.6136M9.50457 15.4495L9.86215 15.6136M9.86215 15.6136C9.89163 15.6272 9.9211 15.6408 9.95057 15.6544C10.5631 15.9366 11.1716 16.2171 11.6867 16.3647C12.2457 16.525 13.128 16.6575 13.9269 16.0511L9.86215 15.6136Z" fill="white" stroke="#61988E" stroke-width="3"/>
</svg>
