<svg width="22" height="23" viewBox="0 0 22 23" fill="none" xmlns="http://www.w3.org/2000/svg">
<path d="M15.0451 6.29263L14.931 6.07102C14.9309 6.07094 14.9309 6.07085 14.9308 6.07076C14.9111 6.03245 14.8913 5.99388 14.8713 5.95509C14.5449 5.32012 14.1885 4.62696 13.8235 4.11069C13.4628 3.60049 12.5735 2.5 11 2.5C9.42651 2.5 8.53716 3.60049 8.17649 4.11069C7.81153 4.62696 7.45514 5.32013 7.12866 5.9551C7.10872 5.99389 7.08889 6.03246 7.06918 6.07076C7.06913 6.07085 7.06908 6.07094 7.06904 6.07102L6.95485 6.2928L6.8295 6.32355C6.82942 6.32357 6.82934 6.32359 6.82926 6.32361C6.82901 6.32367 6.82876 6.32373 6.82852 6.32379C6.78849 6.33359 6.74792 6.34349 6.70686 6.35351C6.08218 6.50599 5.34612 6.68565 4.75977 6.93606C4.04653 7.24066 3.01717 7.87414 2.63161 9.21564L2.63099 9.21782C2.26589 10.4925 2.73506 11.5532 3.09658 12.1754C3.41856 12.7296 3.89591 13.3334 4.33094 13.8838C4.3558 13.9152 4.38052 13.9465 4.40506 13.9776C4.4051 13.9776 4.40513 13.9777 4.40517 13.9777C4.40551 13.9781 4.40585 13.9786 4.40619 13.979L4.63013 14.263L4.59158 14.6907L4.59139 14.6929C4.58767 14.7346 4.58392 14.7764 4.58017 14.8183C4.51387 15.5582 4.44384 16.3398 4.47022 16.979C4.49694 17.6265 4.63606 18.8798 5.72611 19.7759L5.7269 19.7766C6.93422 20.7682 8.28278 20.5187 8.9751 20.3037C9.57795 20.1165 10.2612 19.7752 10.8438 19.4841C10.8834 19.4643 10.9226 19.4447 10.9612 19.4255L11.0003 19.406L11.039 19.4253C11.0394 19.4255 11.0399 19.4257 11.0403 19.4259C11.079 19.4452 11.1182 19.4648 11.1579 19.4847C11.7396 19.7754 12.4224 20.1167 13.025 20.3039C13.719 20.5194 15.0674 20.7676 16.2741 19.7756C17.3649 18.8792 17.5033 17.6248 17.5299 16.9786C17.5561 16.3396 17.4861 15.5582 17.4198 14.8183C17.4161 14.7763 17.4123 14.7345 17.4086 14.6929L17.4084 14.6911L17.3699 14.2624L17.5935 13.9794L17.5942 13.9785C17.6193 13.9467 17.6446 13.9147 17.67 13.8825C18.1048 13.3322 18.5817 12.7286 18.9034 12.1749C19.2645 11.5535 19.7345 10.4923 19.3688 9.21714L19.3684 9.21564C18.9828 7.87417 17.9537 7.24083 17.2404 6.93626C16.6556 6.68652 15.9211 6.50694 15.2976 6.35451C15.2552 6.34415 15.2134 6.33392 15.1721 6.32379L15.1721 6.32379L15.0451 6.29263Z" fill="white" stroke="#61988E" stroke-width="5"/>
</svg>
