<svg width="34" height="34" viewBox="0 0 34 34" fill="none" xmlns="http://www.w3.org/2000/svg">
<path d="M22.9932 8.57735L22.9937 8.57826C23.1044 8.77687 23.1888 8.92829 23.2636 9.05767C23.289 9.10166 23.3113 9.13977 23.3311 9.17291C23.3588 9.17994 23.3895 9.18758 23.4236 9.19588C23.5625 9.22962 23.7246 9.26628 23.9403 9.31497L23.9419 9.31534L24.7051 9.48814L24.7051 9.48814C24.7616 9.50093 24.8179 9.51368 24.8742 9.5264C26.2038 9.82718 27.4714 10.1139 28.4341 10.4934C29.4851 10.9077 30.8078 11.6749 31.3183 13.3144L31.3188 13.316C31.8197 14.9287 31.196 16.3112 30.5993 17.2591C30.0406 18.1468 29.1826 19.1499 28.2688 20.2181C28.2338 20.2589 28.1988 20.2998 28.1638 20.3408L28.163 20.3418L27.6436 20.9486C27.4969 21.1202 27.3856 21.2505 27.2911 21.3645C27.2464 21.4185 27.2102 21.4631 27.1808 21.5003C27.1838 21.5528 27.1883 21.6172 27.1948 21.6972C27.2071 21.848 27.224 22.0224 27.246 22.2499C27.2461 22.2504 27.2461 22.2508 27.2462 22.2513L27.3252 23.0623L27.3254 23.0643C27.3309 23.1207 27.3363 23.177 27.3417 23.2331C27.4798 24.6588 27.6083 25.9855 27.5615 27.0359C27.5127 28.1312 27.253 29.6649 25.8863 30.7027L22.9932 8.57735ZM22.9932 8.57735L22.5998 7.87202C22.5717 7.82173 22.5438 7.77154 22.5158 7.72147C21.8281 6.48759 21.1828 5.33 20.549 4.50238C19.8881 3.63938 18.767 2.5 17 2.5C15.233 2.5 14.1119 3.63938 13.451 4.50238C12.8172 5.33001 12.1719 6.48761 11.4841 7.72151C11.4563 7.77147 11.4284 7.82155 11.4004 7.87175C11.4003 7.87184 11.4003 7.87193 11.4002 7.87202L11.0068 8.57735L11.0063 8.57826C10.8956 8.77687 10.8112 8.92829 10.7364 9.05767C10.711 9.10168 10.6886 9.13981 10.6688 9.17296C10.6411 9.18004 10.6102 9.18773 10.5758 9.1961C10.4373 9.22981 10.2755 9.26647 10.0601 9.31514L10.0593 9.31534L9.29701 9.48793C9.29682 9.48797 9.29663 9.48802 9.29644 9.48806C9.29632 9.48809 9.29621 9.48811 9.29609 9.48814C9.24273 9.5002 9.18945 9.51223 9.13626 9.52424C7.803 9.82533 6.53183 10.1124 5.56643 10.493C4.51522 10.9074 3.19219 11.6749 2.68171 13.3144L2.68099 13.3167C2.18067 14.9291 2.80346 16.3112 3.40065 17.26C3.95986 18.1485 4.8187 19.1519 5.73314 20.2204C5.76737 20.2604 5.80169 20.3005 5.83607 20.3407C5.83625 20.3409 5.83643 20.3411 5.83662 20.3413L6.3562 20.9495L6.35788 20.9515C6.5044 21.1226 6.61551 21.2525 6.70961 21.366C6.7541 21.4196 6.78997 21.4639 6.81911 21.5007C6.81616 21.5531 6.81168 21.6177 6.80512 21.6981C6.79281 21.8491 6.77597 22.0238 6.75389 22.252C6.75386 22.2523 6.75383 22.2526 6.75381 22.2528L6.67481 23.0619L6.67458 23.0643C6.66913 23.1207 6.66368 23.177 6.65825 23.2331C6.52019 24.6588 6.3917 25.9857 6.43868 27.0365C6.48774 28.1336 6.74858 29.6671 8.11615 30.7048L8.11695 30.7054C9.52513 31.7731 11.0914 31.5537 12.1562 31.2485C13.1491 30.9638 14.3353 30.4175 15.581 29.8439C15.6324 29.8202 15.6839 29.7965 15.7355 29.7727C15.7358 29.7726 15.736 29.7725 15.7362 29.7724C15.7363 29.7724 15.7364 29.7723 15.7365 29.7722L16.4507 29.4439L16.4545 29.4422C16.6554 29.3494 16.807 29.2796 16.9377 29.2218C16.9599 29.212 16.9807 29.203 17 29.1946C17.0193 29.203 17.0401 29.212 17.0623 29.2218C17.193 29.2796 17.3446 29.3494 17.5454 29.4422L17.5507 29.4446M22.9932 8.57735L17.5507 29.4446M17.5507 29.4446L18.2643 29.7721C18.2647 29.7723 18.2652 29.7725 18.2657 29.7727M17.5507 29.4446L18.2657 29.7727M18.2657 29.7727C18.3187 29.7971 18.3716 29.8215 18.4244 29.8458C19.6674 30.4185 20.8522 30.9644 21.8441 31.2488C22.9101 31.5544 24.4766 31.7727 25.8846 30.7039L18.2657 29.7727Z" fill="white" stroke="#61988E" stroke-width="5"/>
</svg>
