<svg width="23" height="23" viewBox="0 0 23 23" fill="none" xmlns="http://www.w3.org/2000/svg">
<path d="M15.534 5.99762L15.6789 6.25744L15.9266 6.31353L15.9267 6.31354C15.9692 6.32317 16.0121 6.33286 16.0554 6.34264C16.7389 6.49699 17.5069 6.67041 18.1137 6.90958C18.8064 7.18266 19.9199 7.78231 20.3498 9.163L20.3503 9.1646C20.7709 10.5188 20.2223 11.6371 19.836 12.2507C19.487 12.8053 18.971 13.4081 18.5007 13.9576C18.4729 13.99 18.4453 14.0223 18.4179 14.0543L18.4171 14.0552L18.198 14.3112L18.2333 14.6726L18.2334 14.6746C18.2376 14.7178 18.2419 14.7613 18.2461 14.8051C18.3174 15.5396 18.3946 16.334 18.3655 16.9871C18.3345 17.6828 18.1626 18.9567 17.0066 19.8346C17.0061 19.835 17.0055 19.8355 17.005 19.8359L15.4942 17.844L15.534 5.99762ZM15.534 5.99762C15.5339 5.99752 15.5339 5.99743 15.5338 5.99734C15.5125 5.9591 15.491 5.92058 15.4694 5.88184C15.1157 5.24671 14.7281 4.55095 14.3321 4.03378C13.9104 3.48318 13.0066 2.5 11.5 2.5C9.9934 2.5 9.08958 3.48318 8.66792 4.03378C8.27185 4.55096 7.88432 5.24671 7.53055 5.88185C7.50897 5.92059 7.48751 5.95911 7.46619 5.99734C7.46614 5.99743 7.46609 5.99753 7.46604 5.99762L7.32101 6.2576L7.07494 6.31332C7.07488 6.31333 7.07482 6.31335 7.07477 6.31336C7.07452 6.31342 7.07426 6.31347 7.07401 6.31353C7.03287 6.32283 6.99136 6.33219 6.94953 6.34162C6.26458 6.49604 5.49491 6.66956 4.88658 6.90937C4.19376 7.18249 3.08014 7.78228 2.65023 9.163L2.64951 9.16532C2.22949 10.5189 2.7772 11.6368 3.16396 12.2512C3.51332 12.8063 4.02977 13.4093 4.50035 13.9588C4.52782 13.9909 4.55512 14.0228 4.58223 14.0545L15.534 5.99762Z" fill="white" stroke="#61988E" stroke-width="5"/>
</svg>
