<svg width="28" height="30" viewBox="0 0 28 30" fill="none" xmlns="http://www.w3.org/2000/svg">
<path d="M8.11597 0H19.8701C24.3479 0 27.9861 3.8415 27.9861 8.5695V20.9805C27.9861 23.2533 27.131 25.433 25.609 27.0401C24.087 28.6471 22.0226 29.55 19.8701 29.55H8.11597C3.63819 29.55 0 25.7085 0 20.9805V8.5695C0 6.29673 0.855073 4.11704 2.37711 2.50995C3.89915 0.902856 5.96348 0 8.11597 0ZM7.83611 2.955C6.50008 2.955 5.21878 3.51539 4.27406 4.5129C3.32935 5.51041 2.79861 6.86331 2.79861 8.274V21.276C2.79861 24.2162 5.05149 26.595 7.83611 26.595H20.15C21.486 26.595 22.7673 26.0346 23.7121 25.0371C24.6568 24.0396 25.1875 22.6867 25.1875 21.276V8.274C25.1875 5.33378 22.9346 2.955 20.15 2.955H7.83611ZM21.3394 5.17125C21.8033 5.17125 22.2482 5.36583 22.5762 5.71219C22.9043 6.05854 23.0885 6.5283 23.0885 7.01813C23.0885 7.50795 22.9043 7.97771 22.5762 8.32406C22.2482 8.67042 21.8033 8.865 21.3394 8.865C20.8755 8.865 20.4306 8.67042 20.1026 8.32406C19.7746 7.97771 19.5903 7.50795 19.5903 7.01813C19.5903 6.5283 19.7746 6.05854 20.1026 5.71219C20.4306 5.36583 20.8755 5.17125 21.3394 5.17125ZM13.9931 7.3875C15.8487 7.3875 17.6282 8.16582 18.9403 9.55125C20.2525 10.9367 20.9896 12.8157 20.9896 14.775C20.9896 16.7343 20.2525 18.6133 18.9403 19.9988C17.6282 21.3842 15.8487 22.1625 13.9931 22.1625C12.1375 22.1625 10.3579 21.3842 9.04576 19.9988C7.73366 18.6133 6.99653 16.7343 6.99653 14.775C6.99653 12.8157 7.73366 10.9367 9.04576 9.55125C10.3579 8.16582 12.1375 7.3875 13.9931 7.3875ZM13.9931 10.3425C12.8797 10.3425 11.8119 10.8095 11.0247 11.6407C10.2374 12.472 9.79514 13.5994 9.79514 14.775C9.79514 15.9506 10.2374 17.078 11.0247 17.9093C11.8119 18.7405 12.8797 19.2075 13.9931 19.2075C15.1064 19.2075 16.1742 18.7405 16.9614 17.9093C17.7487 17.078 18.191 15.9506 18.191 14.775C18.191 13.5994 17.7487 12.472 16.9614 11.6407C16.1742 10.8095 15.1064 10.3425 13.9931 10.3425Z" fill="#295554"/>
</svg>
